<svg width="640" height="800" viewBox="0 0 640 800" fill="none" xmlns="http://www.w3.org/2000/svg">
  <rect width="640" height="800" rx="48" fill="#0F172A"/>
  <rect x="24" y="24" width="592" height="752" rx="36" fill="url(#paint0_linear_1_2)"/>
  <circle cx="320" cy="284" r="118" fill="#C9D6E8"/>
  <path d="M168 654C168 551.827 250.827 469 353 469H287C389.173 469 472 551.827 472 654V686H168V654Z" fill="#DCE7F5"/>
  <path d="M209 241C209 178.592 259.592 128 322 128C384.408 128 435 178.592 435 241V286H209V241Z" fill="#1E293B"/>
  <circle cx="275" cy="275" r="10" fill="#475569"/>
  <circle cx="365" cy="275" r="10" fill="#475569"/>
  <path d="M286 338C307.5 355.667 333 355.667 354 338" stroke="#475569" stroke-width="10" stroke-linecap="round"/>
  <rect x="72" y="82" width="164" height="36" rx="18" fill="#60A5FA" fill-opacity="0.2"/>
  <text x="100" y="106" fill="#93C5FD" font-family="Arial, sans-serif" font-size="20" font-weight="700">Headshot</text>
  <text x="102" y="724" fill="#DCE7F5" font-family="Arial, sans-serif" font-size="28" font-weight="700">Replace with your photo</text>
  <text x="126" y="758" fill="#93A8C4" font-family="Arial, sans-serif" font-size="20">assets/headshot-placeholder.svg</text>
  <defs>
    <linearGradient id="paint0_linear_1_2" x1="320" y1="24" x2="320" y2="776" gradientUnits="userSpaceOnUse">
      <stop stop-color="#16233A"/>
      <stop offset="1" stop-color="#0B1120"/>
    </linearGradient>
  </defs>
</svg>
