<svg width="1600" height="1000" viewBox="0 0 1600 1000" fill="none" xmlns="http://www.w3.org/2000/svg">
  <rect width="1600" height="1000" rx="48" fill="#0B1120"/>
  <rect x="36" y="36" width="1528" height="928" rx="32" fill="url(#paint0_linear_1_2)" stroke="#334155" stroke-width="4"/>
  <rect x="124" y="118" width="1352" height="764" rx="28" fill="#111827" stroke="#475569" stroke-width="4"/>
  <rect x="188" y="178" width="280" height="40" rx="20" fill="#1D4ED8" fill-opacity="0.28"/>
  <rect x="188" y="258" width="502" height="28" rx="14" fill="#E2E8F0" fill-opacity="0.9"/>
  <rect x="188" y="306" width="438" height="20" rx="10" fill="#94A3B8" fill-opacity="0.75"/>
  <rect x="188" y="370" width="392" height="388" rx="24" fill="#172033"/>
  <rect x="620" y="370" width="668" height="78" rx="20" fill="#16233A"/>
  <rect x="620" y="474" width="668" height="78" rx="20" fill="#16233A"/>
  <rect x="620" y="578" width="668" height="78" rx="20" fill="#16233A"/>
  <rect x="620" y="682" width="668" height="78" rx="20" fill="#16233A"/>
  <rect x="1324" y="370" width="92" height="390" rx="24" fill="#0F172A" stroke="#334155" stroke-width="4"/>
  <circle cx="1370" cy="448" r="26" fill="#60A5FA"/>
  <circle cx="1370" cy="520" r="26" fill="#2563EB" fill-opacity="0.65"/>
  <circle cx="1370" cy="592" r="26" fill="#1E293B"/>
  <text x="188" y="510" fill="#93C5FD" font-family="Arial, sans-serif" font-size="38" font-weight="700">Add your app screenshot here</text>
  <text x="188" y="566" fill="#94A3B8" font-family="Arial, sans-serif" font-size="24">Replace this file or point each slide image to a real screenshot asset.</text>
  <text x="188" y="862" fill="#CBD5E1" font-family="Arial, sans-serif" font-size="26" font-weight="700">Suggested size: 1600 × 1000 or similar landscape crop</text>
  <defs>
    <linearGradient id="paint0_linear_1_2" x1="800" y1="36" x2="800" y2="964" gradientUnits="userSpaceOnUse">
      <stop stop-color="#16233A"/>
      <stop offset="1" stop-color="#0F172A"/>
    </linearGradient>
  </defs>
</svg>
